<svg id="visual" viewBox="0 0 1920 2500" width="1920" height="2500" xmlns="http://www.w3.org/2000/svg" xmlns:xlink="http://www.w3.org/1999/xlink" version="1.1"><g stroke-width="1" stroke-linejoin="bevel"><path d="M1099.7 1248L1300 1240L1100.7 1049.7Z" fill="#005f9b" stroke="#005f9b"></path><path d="M1300 1240L1307 1039.7L1100.7 1049.7Z" fill="#042942" stroke="#042942"></path><path d="M1300 1240L1497.3 1221L1307 1039.7Z" fill="#023657" stroke="#023657"></path><path d="M1099.7 1248L1319 1451.3L1300 1240Z" fill="#051d2f" stroke="#051d2f"></path><path d="M1300 1240L1319 1451.3L1497.3 1221Z" fill="#042942" stroke="#042942"></path><path d="M1497.3 1221L1501.3 1027.7L1307 1039.7Z" fill="#023657" stroke="#023657"></path><path d="M1249 797.3L1104.7 815.3L1100.7 1049.7Z" fill="#00101c" stroke="#00101c"></path><path d="M1249 797.3L1100.7 1049.7L1307 1039.7Z" fill="#008ae5" stroke="#008ae5"></path><path d="M1498.3 802.3L1249 797.3L1307 1039.7Z" fill="#006db3" stroke="#006db3"></path><path d="M887.3 796.3L842.3 1018.7L1100.7 1049.7Z" fill="#051d2f" stroke="#051d2f"></path><path d="M1100.7 1049.7L816.3 1225L1099.7 1248Z" fill="#042942" stroke="#042942"></path><path d="M1099.7 1248L1044.7 1495.3L1319 1451.3Z" fill="#051d2f" stroke="#051d2f"></path><path d="M816.3 1225L1044.7 1495.3L1099.7 1248Z" fill="#023657" stroke="#023657"></path><path d="M842.3 1018.7L816.3 1225L1100.7 1049.7Z" fill="#051d2f" stroke="#051d2f"></path><path d="M1501.3 1027.7L1498.3 802.3L1307 1039.7Z" fill="#051d2f" stroke="#051d2f"></path><path d="M1049.7 599L887.3 796.3L1104.7 815.3Z" fill="#00436d" stroke="#00436d"></path><path d="M1104.7 815.3L887.3 796.3L1100.7 1049.7Z" fill="#00436d" stroke="#00436d"></path><path d="M1507.3 1636.7L1532.3 1489.3L1319 1451.3Z" fill="#0099ff" stroke="#0099ff"></path><path d="M1319 1451.3L1532.3 1489.3L1497.3 1221Z" fill="#007ccc" stroke="#007ccc"></path><path d="M1497.3 1221L1671.7 1030.7L1501.3 1027.7Z" fill="#005f9b" stroke="#005f9b"></path><path d="M1501.3 1027.7L1671.7 1030.7L1498.3 802.3Z" fill="#023657" stroke="#023657"></path><path d="M1692.7 1228L1671.7 1030.7L1497.3 1221Z" fill="#042942" stroke="#042942"></path><path d="M816.3 1225L839.3 1494.3L1044.7 1495.3Z" fill="#051d2f" stroke="#051d2f"></path><path d="M1675.7 1474.3L1692.7 1228L1497.3 1221Z" fill="#007ccc" stroke="#007ccc"></path><path d="M640 858.3L677 1049.7L842.3 1018.7Z" fill="#023657" stroke="#023657"></path><path d="M842.3 1018.7L677 1049.7L816.3 1225Z" fill="#023657" stroke="#023657"></path><path d="M816.3 1225L629 1473.3L839.3 1494.3Z" fill="#0099ff" stroke="#0099ff"></path><path d="M1100.7 1677.7L1277 1678.7L1044.7 1495.3Z" fill="#023657" stroke="#023657"></path><path d="M1044.7 1495.3L1277 1678.7L1319 1451.3Z" fill="#008ae5" stroke="#008ae5"></path><path d="M881.3 1669.7L1100.7 1677.7L1044.7 1495.3Z" fill="#023657" stroke="#023657"></path><path d="M1489.3 653L1276 618L1249 797.3Z" fill="#008ae5" stroke="#008ae5"></path><path d="M1249 797.3L1276 618L1104.7 815.3Z" fill="#00436d" stroke="#00436d"></path><path d="M1276 618L1049.7 599L1104.7 815.3Z" fill="#007ccc" stroke="#007ccc"></path><path d="M887.3 796.3L640 858.3L842.3 1018.7Z" fill="#0099ff" stroke="#0099ff"></path><path d="M1724.7 602L1489.3 653L1498.3 802.3Z" fill="#00436d" stroke="#00436d"></path><path d="M1498.3 802.3L1489.3 653L1249 797.3Z" fill="#007ccc" stroke="#007ccc"></path><path d="M1277 1678.7L1507.3 1636.7L1319 1451.3Z" fill="#007ccc" stroke="#007ccc"></path><path d="M1532.3 1489.3L1675.7 1474.3L1497.3 1221Z" fill="#005184" stroke="#005184"></path><path d="M1507.3 1636.7L1675.7 1474.3L1532.3 1489.3Z" fill="#006db3" stroke="#006db3"></path><path d="M677 1049.7L611 1255L816.3 1225Z" fill="#005184" stroke="#005184"></path><path d="M1671.7 1030.7L1724.7 850.3L1498.3 802.3Z" fill="#023657" stroke="#023657"></path><path d="M1920 1064.7L1724.7 850.3L1671.7 1030.7Z" fill="#0099ff" stroke="#0099ff"></path><path d="M1920 1064.7L1671.7 1030.7L1692.7 1228Z" fill="#0099ff" stroke="#0099ff"></path><path d="M671 1667.7L881.3 1669.7L839.3 1494.3Z" fill="#00436d" stroke="#00436d"></path><path d="M839.3 1494.3L881.3 1669.7L1044.7 1495.3Z" fill="#00436d" stroke="#00436d"></path><path d="M829.3 627L640 858.3L887.3 796.3Z" fill="#042942" stroke="#042942"></path><path d="M677 1049.7L465.7 1056.7L611 1255Z" fill="#00436d" stroke="#00436d"></path><path d="M1049.7 599L829.3 627L887.3 796.3Z" fill="#023657" stroke="#023657"></path><path d="M611 1255L629 1473.3L816.3 1225Z" fill="#005184" stroke="#005184"></path><path d="M1920 1478.3L1920 1215L1692.7 1228Z" fill="#023657" stroke="#023657"></path><path d="M1920 1215L1920 1064.7L1692.7 1228Z" fill="#023657" stroke="#023657"></path><path d="M443.7 827.3L465.7 1056.7L640 858.3Z" fill="#00436d" stroke="#00436d"></path><path d="M640 858.3L465.7 1056.7L677 1049.7Z" fill="#00436d" stroke="#00436d"></path><path d="M611 1255L456.7 1436.3L629 1473.3Z" fill="#00101c" stroke="#00101c"></path><path d="M433.7 1698.7L671 1667.7L629 1473.3Z" fill="#007ccc" stroke="#007ccc"></path><path d="M629 1473.3L671 1667.7L839.3 1494.3Z" fill="#005f9b" stroke="#005f9b"></path><path d="M881.3 1669.7L1042.7 1877L1100.7 1677.7Z" fill="#006db3" stroke="#006db3"></path><path d="M1483.3 447.7L1302 414.7L1276 618Z" fill="#008ae5" stroke="#008ae5"></path><path d="M1276 618L1302 414.7L1049.7 599Z" fill="#051d2f" stroke="#051d2f"></path><path d="M1049.7 599L858.3 455.7L829.3 627Z" fill="#00101c" stroke="#00101c"></path><path d="M1483.3 447.7L1276 618L1489.3 653Z" fill="#005184" stroke="#005184"></path><path d="M1302 414.7L1031.7 424.7L1049.7 599Z" fill="#006db3" stroke="#006db3"></path><path d="M829.3 1872L1042.7 1877L881.3 1669.7Z" fill="#005184" stroke="#005184"></path><path d="M1100.7 1677.7L1274 1900L1277 1678.7Z" fill="#042942" stroke="#042942"></path><path d="M1517.3 1857L1700.7 1705.7L1507.3 1636.7Z" fill="#00101c" stroke="#00101c"></path><path d="M1507.3 1636.7L1700.7 1705.7L1675.7 1474.3Z" fill="#00436d" stroke="#00436d"></path><path d="M1675.7 1474.3L1920 1478.3L1692.7 1228Z" fill="#006db3" stroke="#006db3"></path><path d="M1517.3 1857L1507.3 1636.7L1277 1678.7Z" fill="#008ae5" stroke="#008ae5"></path><path d="M1042.7 1877L1274 1900L1100.7 1677.7Z" fill="#042942" stroke="#042942"></path><path d="M1724.7 602L1483.3 447.7L1489.3 653Z" fill="#042942" stroke="#042942"></path><path d="M1724.7 602L1498.3 802.3L1724.7 850.3Z" fill="#023657" stroke="#023657"></path><path d="M1920 648L1724.7 602L1724.7 850.3Z" fill="#007ccc" stroke="#007ccc"></path><path d="M465.7 1056.7L437.7 1242L611 1255Z" fill="#042942" stroke="#042942"></path><path d="M1031.7 424.7L858.3 455.7L1049.7 599Z" fill="#007ccc" stroke="#007ccc"></path><path d="M829.3 627L604 589L640 858.3Z" fill="#023657" stroke="#023657"></path><path d="M1274 1900L1517.3 1857L1277 1678.7Z" fill="#007ccc" stroke="#007ccc"></path><path d="M1920 1064.7L1920 865.3L1724.7 850.3Z" fill="#00436d" stroke="#00436d"></path><path d="M437.7 1242L456.7 1436.3L611 1255Z" fill="#006db3" stroke="#006db3"></path><path d="M1920 1669.7L1920 1478.3L1675.7 1474.3Z" fill="#006db3" stroke="#006db3"></path><path d="M626 1859L829.3 1872L671 1667.7Z" fill="#051d2f" stroke="#051d2f"></path><path d="M671 1667.7L829.3 1872L881.3 1669.7Z" fill="#042942" stroke="#042942"></path><path d="M1042.7 1877L1100.7 2076.3L1274 1900Z" fill="#042942" stroke="#042942"></path><path d="M858.3 455.7L604 589L829.3 627Z" fill="#005f9b" stroke="#005f9b"></path><path d="M604 589L443.7 827.3L640 858.3Z" fill="#00101c" stroke="#00101c"></path><path d="M465.7 1056.7L207.3 1073.7L437.7 1242Z" fill="#023657" stroke="#023657"></path><path d="M1920 865.3L1920 648L1724.7 850.3Z" fill="#005f9b" stroke="#005f9b"></path><path d="M1724.7 602L1677.7 376.7L1483.3 447.7Z" fill="#00436d" stroke="#00436d"></path><path d="M1920 1845L1920 1669.7L1700.7 1705.7Z" fill="#00436d" stroke="#00436d"></path><path d="M1700.7 1705.7L1920 1669.7L1675.7 1474.3Z" fill="#00436d" stroke="#00436d"></path><path d="M1517.3 1857L1726.7 1886L1700.7 1705.7Z" fill="#007ccc" stroke="#007ccc"></path><path d="M1668.7 2058.3L1726.7 1886L1517.3 1857Z" fill="#042942" stroke="#042942"></path><path d="M433.7 1698.7L626 1859L671 1667.7Z" fill="#006db3" stroke="#006db3"></path><path d="M1920 415.7L1677.7 376.7L1724.7 602Z" fill="#0099ff" stroke="#0099ff"></path><path d="M1477.3 230.3L1247 208.3L1302 414.7Z" fill="#005f9b" stroke="#005f9b"></path><path d="M1302 414.7L1247 208.3L1031.7 424.7Z" fill="#023657" stroke="#023657"></path><path d="M829.3 2090.3L1042.7 1877L829.3 1872Z" fill="#00436d" stroke="#00436d"></path><path d="M829.3 2090.3L1100.7 2076.3L1042.7 1877Z" fill="#042942" stroke="#042942"></path><path d="M1274 1900L1509.3 2090.3L1517.3 1857Z" fill="#0099ff" stroke="#0099ff"></path><path d="M456.7 1436.3L433.7 1698.7L629 1473.3Z" fill="#042942" stroke="#042942"></path><path d="M230.3 1674.7L433.7 1698.7L456.7 1436.3Z" fill="#042942" stroke="#042942"></path><path d="M1477.3 230.3L1302 414.7L1483.3 447.7Z" fill="#006db3" stroke="#006db3"></path><path d="M1031.7 424.7L855.3 209.3L858.3 455.7Z" fill="#042942" stroke="#042942"></path><path d="M858.3 455.7L634 380.7L604 589Z" fill="#005f9b" stroke="#005f9b"></path><path d="M855.3 209.3L634 380.7L858.3 455.7Z" fill="#00436d" stroke="#00436d"></path><path d="M604 589L407.7 609L443.7 827.3Z" fill="#00436d" stroke="#00436d"></path><path d="M1247 208.3L1034.7 207.3L1031.7 424.7Z" fill="#051d2f" stroke="#051d2f"></path><path d="M432.7 383.7L407.7 609L604 589Z" fill="#008ae5" stroke="#008ae5"></path><path d="M443.7 827.3L207.3 1073.7L465.7 1056.7Z" fill="#042942" stroke="#042942"></path><path d="M437.7 1242L207.3 1238L456.7 1436.3Z" fill="#005184" stroke="#005184"></path><path d="M1100.7 2076.3L1296 2103.3L1274 1900Z" fill="#0099ff" stroke="#0099ff"></path><path d="M1677.7 376.7L1477.3 230.3L1483.3 447.7Z" fill="#005f9b" stroke="#005f9b"></path><path d="M207.3 809.3L207.3 1073.7L443.7 827.3Z" fill="#00101c" stroke="#00101c"></path><path d="M1296 2103.3L1509.3 2090.3L1274 1900Z" fill="#00101c" stroke="#00101c"></path><path d="M207.3 1073.7L207.3 1238L437.7 1242Z" fill="#00101c" stroke="#00101c"></path><path d="M1034.7 207.3L855.3 209.3L1031.7 424.7Z" fill="#023657" stroke="#023657"></path><path d="M1920 2060.3L1920 1845L1726.7 1886Z" fill="#006db3" stroke="#006db3"></path><path d="M1726.7 1886L1920 1845L1700.7 1705.7Z" fill="#0099ff" stroke="#0099ff"></path><path d="M611 2054.3L829.3 2090.3L829.3 1872Z" fill="#005184" stroke="#005184"></path><path d="M1100.7 2076.3L1255 2286.7L1296 2103.3Z" fill="#051d2f" stroke="#051d2f"></path><path d="M611 2054.3L829.3 1872L626 1859Z" fill="#006db3" stroke="#006db3"></path><path d="M1509.3 2090.3L1668.7 2058.3L1517.3 1857Z" fill="#00436d" stroke="#00436d"></path><path d="M1920 648L1920 415.7L1724.7 602Z" fill="#008ae5" stroke="#008ae5"></path><path d="M1677.7 376.7L1713.7 246.3L1477.3 230.3Z" fill="#008ae5" stroke="#008ae5"></path><path d="M1920 415.7L1713.7 246.3L1677.7 376.7Z" fill="#007ccc" stroke="#007ccc"></path><path d="M1477.3 230.3L1295 0L1247 208.3Z" fill="#00436d" stroke="#00436d"></path><path d="M407.7 609L207.3 809.3L443.7 827.3Z" fill="#007ccc" stroke="#007ccc"></path><path d="M189.3 596L207.3 809.3L407.7 609Z" fill="#023657" stroke="#023657"></path><path d="M0 1275L181.3 1473.3L207.3 1238Z" fill="#007ccc" stroke="#007ccc"></path><path d="M207.3 1238L181.3 1473.3L456.7 1436.3Z" fill="#00101c" stroke="#00101c"></path><path d="M410.7 1908L611 2054.3L626 1859Z" fill="#023657" stroke="#023657"></path><path d="M0 1275L207.3 1238L207.3 1073.7Z" fill="#007ccc" stroke="#007ccc"></path><path d="M410.7 1908L626 1859L433.7 1698.7Z" fill="#007ccc" stroke="#007ccc"></path><path d="M440.7 171.3L432.7 383.7L634 380.7Z" fill="#0099ff" stroke="#0099ff"></path><path d="M634 380.7L432.7 383.7L604 589Z" fill="#00436d" stroke="#00436d"></path><path d="M855.3 209.3L661 202.3L634 380.7Z" fill="#051d2f" stroke="#051d2f"></path><path d="M853.3 0L661 202.3L855.3 209.3Z" fill="#00101c" stroke="#00101c"></path><path d="M853.3 0L855.3 209.3L1034.7 207.3Z" fill="#00101c" stroke="#00101c"></path><path d="M241.3 1910L410.7 1908L433.7 1698.7Z" fill="#042942" stroke="#042942"></path><path d="M181.3 1473.3L230.3 1674.7L456.7 1436.3Z" fill="#042942" stroke="#042942"></path><path d="M1296 2103.3L1498.3 2320.7L1509.3 2090.3Z" fill="#0099ff" stroke="#0099ff"></path><path d="M1509.3 2090.3L1718.7 2316.7L1668.7 2058.3Z" fill="#042942" stroke="#042942"></path><path d="M1081.7 2310.7L1255 2286.7L1100.7 2076.3Z" fill="#00436d" stroke="#00436d"></path><path d="M1081.7 2310.7L1100.7 2076.3L829.3 2090.3Z" fill="#005184" stroke="#005184"></path><path d="M201.3 409.7L189.3 596L407.7 609Z" fill="#005f9b" stroke="#005f9b"></path><path d="M207.3 809.3L0 1034.7L207.3 1073.7Z" fill="#006db3" stroke="#006db3"></path><path d="M1483.3 0L1295 0L1477.3 230.3Z" fill="#00101c" stroke="#00101c"></path><path d="M1247 208.3L1084.7 0L1034.7 207.3Z" fill="#008ae5" stroke="#008ae5"></path><path d="M1295 0L1084.7 0L1247 208.3Z" fill="#006db3" stroke="#006db3"></path><path d="M1718.7 2316.7L1920 2060.3L1668.7 2058.3Z" fill="#00436d" stroke="#00436d"></path><path d="M1668.7 2058.3L1920 2060.3L1726.7 1886Z" fill="#006db3" stroke="#006db3"></path><path d="M1920 415.7L1920 235.3L1713.7 246.3Z" fill="#00436d" stroke="#00436d"></path><path d="M1721.7 0L1483.3 0L1477.3 230.3Z" fill="#051d2f" stroke="#051d2f"></path><path d="M819.3 2303.7L1081.7 2310.7L829.3 2090.3Z" fill="#00101c" stroke="#00101c"></path><path d="M1721.7 0L1477.3 230.3L1713.7 246.3Z" fill="#00436d" stroke="#00436d"></path><path d="M1084.7 0L853.3 0L1034.7 207.3Z" fill="#00436d" stroke="#00436d"></path><path d="M661 202.3L440.7 171.3L634 380.7Z" fill="#00101c" stroke="#00101c"></path><path d="M432.7 383.7L201.3 409.7L407.7 609Z" fill="#00101c" stroke="#00101c"></path><path d="M0 795.3L0 1034.7L207.3 809.3Z" fill="#008ae5" stroke="#008ae5"></path><path d="M181.3 1473.3L0 1629.7L230.3 1674.7Z" fill="#042942" stroke="#042942"></path><path d="M0 1034.7L0 1275L207.3 1073.7Z" fill="#006db3" stroke="#006db3"></path><path d="M410.7 1908L414.7 2065.3L611 2054.3Z" fill="#042942" stroke="#042942"></path><path d="M631 2252.7L819.3 2303.7L829.3 2090.3Z" fill="#00101c" stroke="#00101c"></path><path d="M241.3 1910L414.7 2065.3L410.7 1908Z" fill="#007ccc" stroke="#007ccc"></path><path d="M241.3 1910L433.7 1698.7L230.3 1674.7Z" fill="#007ccc" stroke="#007ccc"></path><path d="M1253 2500L1498.3 2320.7L1255 2286.7Z" fill="#008ae5" stroke="#008ae5"></path><path d="M1255 2286.7L1498.3 2320.7L1296 2103.3Z" fill="#005184" stroke="#005184"></path><path d="M631 2252.7L829.3 2090.3L611 2054.3Z" fill="#0099ff" stroke="#0099ff"></path><path d="M0 1858L241.3 1910L230.3 1674.7Z" fill="#007ccc" stroke="#007ccc"></path><path d="M667 0L440.7 171.3L661 202.3Z" fill="#007ccc" stroke="#007ccc"></path><path d="M197.3 226.3L201.3 409.7L432.7 383.7Z" fill="#023657" stroke="#023657"></path><path d="M189.3 596L0 795.3L207.3 809.3Z" fill="#042942" stroke="#042942"></path><path d="M414.7 2065.3L631 2252.7L611 2054.3Z" fill="#007ccc" stroke="#007ccc"></path><path d="M0 1275L0 1490.3L181.3 1473.3Z" fill="#023657" stroke="#023657"></path><path d="M0 588L0 795.3L189.3 596Z" fill="#005f9b" stroke="#005f9b"></path><path d="M1920 235.3L1721.7 0L1713.7 246.3Z" fill="#051d2f" stroke="#051d2f"></path><path d="M853.3 0L667 0L661 202.3Z" fill="#0099ff" stroke="#0099ff"></path><path d="M1498.3 2320.7L1718.7 2316.7L1509.3 2090.3Z" fill="#008ae5" stroke="#008ae5"></path><path d="M0 1490.3L0 1629.7L181.3 1473.3Z" fill="#007ccc" stroke="#007ccc"></path><path d="M0 422.7L0 588L189.3 596Z" fill="#051d2f" stroke="#051d2f"></path><path d="M0 422.7L189.3 596L201.3 409.7Z" fill="#00101c" stroke="#00101c"></path><path d="M1718.7 2316.7L1920 2285.7L1920 2060.3Z" fill="#0099ff" stroke="#0099ff"></path><path d="M1498.3 2320.7L1725.7 2500L1718.7 2316.7Z" fill="#005f9b" stroke="#005f9b"></path><path d="M1718.7 2316.7L1920 2500L1920 2285.7Z" fill="#007ccc" stroke="#007ccc"></path><path d="M1081.7 2310.7L1253 2500L1255 2286.7Z" fill="#00101c" stroke="#00101c"></path><path d="M1073.7 2500L1253 2500L1081.7 2310.7Z" fill="#007ccc" stroke="#007ccc"></path><path d="M1073.7 2500L1081.7 2310.7L860.3 2500Z" fill="#007ccc" stroke="#007ccc"></path><path d="M860.3 2500L1081.7 2310.7L819.3 2303.7Z" fill="#006db3" stroke="#006db3"></path><path d="M414.7 2065.3L462.7 2318.7L631 2252.7Z" fill="#0099ff" stroke="#0099ff"></path><path d="M608 2500L860.3 2500L819.3 2303.7Z" fill="#051d2f" stroke="#051d2f"></path><path d="M241.3 1910L247.3 2119.3L414.7 2065.3Z" fill="#005f9b" stroke="#005f9b"></path><path d="M0 2080.3L247.3 2119.3L241.3 1910Z" fill="#051d2f" stroke="#051d2f"></path><path d="M1920 235.3L1920 0L1721.7 0Z" fill="#008ae5" stroke="#008ae5"></path><path d="M238.3 0L197.3 226.3L440.7 171.3Z" fill="#051d2f" stroke="#051d2f"></path><path d="M440.7 171.3L197.3 226.3L432.7 383.7Z" fill="#023657" stroke="#023657"></path><path d="M247.3 2119.3L462.7 2318.7L414.7 2065.3Z" fill="#00436d" stroke="#00436d"></path><path d="M1253 2500L1487.3 2500L1498.3 2320.7Z" fill="#008ae5" stroke="#008ae5"></path><path d="M0 1629.7L0 1858L230.3 1674.7Z" fill="#007ccc" stroke="#007ccc"></path><path d="M608 2500L819.3 2303.7L631 2252.7Z" fill="#005f9b" stroke="#005f9b"></path><path d="M0 223.3L0 422.7L201.3 409.7Z" fill="#0099ff" stroke="#0099ff"></path><path d="M667 0L392.7 0L440.7 171.3Z" fill="#008ae5" stroke="#008ae5"></path><path d="M197.3 226.3L0 223.3L201.3 409.7Z" fill="#005184" stroke="#005184"></path><path d="M1487.3 2500L1725.7 2500L1498.3 2320.7Z" fill="#005f9b" stroke="#005f9b"></path><path d="M462.7 2318.7L608 2500L631 2252.7Z" fill="#006db3" stroke="#006db3"></path><path d="M428.7 2500L608 2500L462.7 2318.7Z" fill="#023657" stroke="#023657"></path><path d="M392.7 0L238.3 0L440.7 171.3Z" fill="#00436d" stroke="#00436d"></path><path d="M0 2319.7L239.3 2311.7L247.3 2119.3Z" fill="#005184" stroke="#005184"></path><path d="M247.3 2119.3L239.3 2311.7L462.7 2318.7Z" fill="#042942" stroke="#042942"></path><path d="M0 0L0 223.3L197.3 226.3Z" fill="#00101c" stroke="#00101c"></path><path d="M0 1858L0 2080.3L241.3 1910Z" fill="#005f9b" stroke="#005f9b"></path><path d="M1725.7 2500L1920 2500L1718.7 2316.7Z" fill="#006db3" stroke="#006db3"></path><path d="M230.3 2500L428.7 2500L239.3 2311.7Z" fill="#042942" stroke="#042942"></path><path d="M239.3 2311.7L428.7 2500L462.7 2318.7Z" fill="#007ccc" stroke="#007ccc"></path><path d="M238.3 0L0 0L197.3 226.3Z" fill="#005f9b" stroke="#005f9b"></path><path d="M0 2319.7L230.3 2500L239.3 2311.7Z" fill="#008ae5" stroke="#008ae5"></path><path d="M0 2080.3L0 2319.7L247.3 2119.3Z" fill="#005184" stroke="#005184"></path><path d="M0 2319.7L0 2500L230.3 2500Z" fill="#008ae5" stroke="#008ae5"></path></g></svg>